<?xml version="1.0" standalone="no"?>
<!DOCTYPE svg PUBLIC "-//W3C//DTD SVG 20010904//EN"
 "http://www.w3.org/TR/2001/REC-SVG-20010904/DTD/svg10.dtd">
<svg version="1.0" xmlns="http://www.w3.org/2000/svg"
 width="300.000000pt" height="300.000000pt" viewBox="0 0 300.000000 300.000000"
 preserveAspectRatio="xMidYMid meet">

<g transform="translate(0.000000,300.000000) scale(0.100000,-0.100000)"
fill="#000000" stroke="none">
<path d="M705 2525 c-7 -11 -104 -177 -215 -369 -128 -222 -199 -355 -195
-365 3 -9 99 -177 213 -373 l207 -358 318 0 319 0 -19 33 c-10 17 -45 78 -78
134 l-59 103 -160 2 -160 3 -133 230 c-73 127 -132 235 -131 241 2 6 62 112
133 237 l130 226 160 1 160 0 78 135 c42 74 77 136 77 138 0 2 -142 4 -316 3
-305 -1 -317 -2 -329 -21z"/>
<path d="M1382 2483 c-22 -38 -94 -161 -160 -275 l-120 -208 161 0 162 1 75
132 76 132 273 0 274 0 134 -232 135 -232 -76 -130 c-42 -71 -76 -135 -76
-142 0 -14 137 -256 150 -264 4 -3 79 117 165 266 l157 270 -73 127 c-41 70
-137 237 -216 372 l-142 245 -430 3 -430 2 -39 -67z"/>
<path d="M1603 2198 c-5 -7 -24 -38 -41 -68 l-31 -55 80 -137 79 -136 -80
-137 -80 -137 41 -69 40 -70 82 3 82 3 117 203 118 203 -118 204 -117 205 -81
0 c-54 0 -85 -4 -91 -12z"/>
<path d="M947 1734 l-118 -206 39 -66 38 -67 83 0 83 0 77 132 76 132 159 3
159 3 38 60 c21 33 38 66 38 73 1 7 -16 42 -36 77 l-37 65 -241 0 -240 -1
-118 -205z"/>
<path d="M2027 1718 c-8 -12 -44 -74 -80 -137 l-65 -113 50 -87 c28 -47 64
-108 80 -135 l29 -48 -87 -152 c-48 -83 -108 -187 -134 -231 l-46 -80 -275 -3
-274 -2 -74 131 c-41 72 -79 133 -86 135 -6 3 -79 3 -162 2 l-151 -3 157 -270
156 -270 434 0 433 0 102 175 c56 96 152 263 214 371 l113 195 -157 270 c-85
148 -157 271 -159 272 -2 2 -10 -7 -18 -20z"/>
<path d="M1221 1540 l-41 -71 118 -204 117 -204 242 -1 242 0 37 67 38 67 -36
65 -36 66 -162 5 -162 5 -78 135 -78 135 -80 3 -80 3 -41 -71z"/>
</g>
</svg>
